<svg width="25" height="24" viewBox="0 0 25 24" fill="none" xmlns="http://www.w3.org/2000/svg">
<path fill-rule="evenodd" clip-rule="evenodd" d="M1.59998 4.99998C1.59998 4.50292 2.00292 4.09998 2.49998 4.09998H13.5C13.997 4.09998 14.4 4.50292 14.4 4.99998V5.09998H18.5C18.8161 5.09998 19.1091 5.26584 19.2717 5.53693L22.2717 10.5369C22.3556 10.6768 22.4 10.8369 22.4 11V17C22.4 17.497 21.997 17.9 21.5 17.9H20.2576C19.8789 19.061 18.7874 19.9 17.5 19.9C16.2125 19.9 15.121 19.061 14.7423 17.9H10.2576C9.87893 19.061 8.78743 19.9 7.49998 19.9C6.21252 19.9 5.12102 19.061 4.74234 17.9H3.49998C3.00292 17.9 2.59998 17.497 2.59998 17V13C2.59998 12.5029 3.00292 12.1 3.49998 12.1C3.99703 12.1 4.39998 12.5029 4.39998 13V16.1H4.74234C5.12102 14.9389 6.21252 14.1 7.49998 14.1C8.78743 14.1 9.87893 14.9389 10.2576 16.1H12.6V5.89998H2.49998C2.00292 5.89998 1.59998 5.49703 1.59998 4.99998ZM14.4 6.89998V10.1H19.9104L17.9904 6.89998H14.4ZM20.6 11.9H14.4V16.1H14.7423C15.121 14.9389 16.2125 14.1 17.5 14.1C18.7874 14.1 19.8789 14.9389 20.2576 16.1H20.6V11.9ZM2.59998 8.99997C2.59998 8.50292 3.00292 8.09997 3.49998 8.09997H7.49998C7.99703 8.09997 8.39998 8.50292 8.39998 8.99997C8.39998 9.49703 7.99703 9.89997 7.49998 9.89997H3.49998C3.00292 9.89997 2.59998 9.49703 2.59998 8.99997ZM7.49998 15.9C6.89246 15.9 6.39998 16.3925 6.39998 17C6.39998 17.6075 6.89246 18.1 7.49998 18.1C8.10749 18.1 8.59998 17.6075 8.59998 17C8.59998 16.3925 8.10749 15.9 7.49998 15.9ZM17.5 15.9C16.8925 15.9 16.4 16.3925 16.4 17C16.4 17.6075 16.8925 18.1 17.5 18.1C18.1075 18.1 18.6 17.6075 18.6 17C18.6 16.3925 18.1075 15.9 17.5 15.9Z" fill="white"/>
</svg>
